/* XPM */
static const char *crosshair_cursor_xpm[] = {
"32 32 3 1",
" 	c None",
".	c #ff0000",
"#	c #0000ff",
"        ....                    ",
"        ....                    ",
"        ....                    ",
"        ....                    ",
"        ....                    ",
"        ....                    ",
"        ....                    ",
"        ....                    ",
"######################          ",
"######################          ",
"######################          ",
"######################          ",
"        ....                    ",
"        ....                    ",
"        ....                    ",
"        ....                    ",
"        ....                    ",
"        ....                    ",
"        ....                    ",
"        ....                    ",
"                                ",
"                                ",
"                                ",
"                                ",
"                                ",
"                                ",
"                                ",
"                                ",
"                                ",
"                                ",
"                                ",
"                                "
};